<svg viewBox="0 0 412 360" fill="none" xmlns="http://www.w3.org/2000/svg">
<g clip-path="url(#clip0_10_2)">
<path d="M307.413 89.3438C316.53 82.9341 321.833 73.2576 321.826 63.0299V22.491C321.827 10.0702 310.302 0 296.087 0H115.913C101.698 0 90.173 10.0702 90.173 22.491V63.0306C90.1665 73.2583 95.4687 82.9348 104.587 89.3445L193.13 151.531V164.407V164.745L165.075 216.922L102.657 225.244C94.742 226.233 89.2403 232.644 90.3725 239.559C90.8039 242.19 92.1743 244.642 94.2914 246.554L139.85 287.374L128.782 345.175C127.502 352.074 132.855 358.573 140.751 359.692C143.955 360.148 147.244 359.647 150.082 358.275L206 331.399L261.662 358.275C268.566 361.795 277.434 359.754 281.462 353.721C283.18 351.141 283.804 348.115 283.219 345.175L272.151 287.374L317.709 246.553C323.275 241.538 323.14 233.531 317.4 228.662C315.251 226.84 312.504 225.643 309.537 225.243L247.119 216.922L218.871 164.687V164.349V151.53L307.413 89.3438Z" fill="#2D4961"/>
<path d="M308.958 33.7361V66.1222C308.945 71.2445 306.267 76.0856 301.686 79.2792L231.74 128.253C223.619 133.898 218.884 142.467 218.871 151.531L307.414 89.3438C316.532 82.9341 321.834 73.2576 321.828 63.0299V22.491C314.723 22.491 308.958 27.5226 308.958 33.7361Z" fill="#123247"/>
<path d="M115.913 0C101.698 0 90.173 10.0702 90.173 22.491V61.8493C97.2832 61.8493 103.042 56.8171 103.042 50.6042V22.491C103.042 16.2781 108.802 11.2458 115.912 11.2458H283.217C290.327 11.2458 296.086 6.21355 296.086 0.000703129H115.913V0Z" fill="#44637F"/>
<path d="M272.15 287.375L317.709 246.554C321.505 243.152 322.792 238.176 321.054 233.678C320.765 233.054 320.424 232.452 320.025 231.879C316.757 232.16 313.661 233.295 311.145 235.14L274.66 267.807C268.959 272.924 266.378 280.104 267.711 287.149L276.397 333.704C277.678 340.604 272.324 347.103 264.428 348.222C261.224 348.678 257.935 348.177 255.098 346.805L211.92 326.113C204.089 322.267 194.527 322.267 186.696 326.113L143.84 346.918C143.247 347.171 142.617 347.356 141.973 347.48C137.456 348.593 134.831 352.698 136.111 356.64C136.298 357.208 136.555 357.758 136.89 358.276C141.112 360.244 146.182 360.244 150.403 358.276L206 331.4L261.662 358.276C268.566 361.796 277.434 359.755 281.462 353.722C283.18 351.141 283.804 348.116 283.219 345.175L272.15 287.375Z" fill="#123247"/>
<path d="M206 305.704L158.19 328.813L167.327 279.784L128.01 244.586L182.32 237.333L206 193.251L229.68 237.333L283.99 244.586L244.673 279.784L253.811 328.813L206 305.704Z" fill="#FFCB5B"/>
<path d="M189.527 246.497L212.049 204.552L206 193.251L182.32 237.333L128.01 244.586L137.855 253.413L189.527 246.497Z" fill="#FFDB6F"/>
<path d="M283.99 244.586L269.64 242.674L237.466 271.518L246.604 320.492L198.793 297.439L160.634 315.825L158.19 328.813L206 305.704L253.811 328.813L244.673 279.784L283.99 244.586Z" fill="#F7B84E"/>
<path d="M120.738 71.8014C117.689 69.6702 115.913 66.4429 115.913 63.0299V22.491H296.088V63.0306C296.088 66.4436 294.312 69.6709 291.262 71.8021L206.001 131.683L120.738 71.8014Z" fill="#3689C9"/>
<path d="M263.913 91.0306V33.7361H238.174V109.08L263.913 91.0306Z" fill="#E2E5E7"/>
<path d="M173.826 109.08V33.7361H148.087V91.0306L173.826 109.08Z" fill="#E2E5E7"/>
<path d="M193.13 122.63L206 131.683L218.87 122.63V33.7361H193.13V122.63Z" fill="#E2E5E7"/>
<path d="M296.069 22.491H115.893V33.7361H296.069V22.491Z" fill="#4C9FD7"/>
<path d="M173.807 22.491H148.067V33.7361H173.807V22.491Z" fill="#F1F2F2"/>
<path d="M218.851 22.491H193.111V33.7361H218.851V22.491Z" fill="#F1F2F2"/>
<path d="M263.895 22.491H238.155V33.7361H263.895V22.491Z" fill="#F1F2F2"/>
<path d="M193.13 151.812V164.406V164.744L165.075 216.922L102.657 225.244C94.7421 226.233 89.2404 232.644 90.3726 239.559C90.8039 242.19 92.1743 244.642 94.2914 246.554L96.6081 248.69C96.6918 242.551 101.878 237.372 108.835 236.489L158.19 229.911C166.484 228.882 173.685 224.394 177.494 217.878L202.654 174.302C204.842 170.58 205.988 166.453 206 162.269C206 156.495 200.64 151.811 194.031 151.811L193.13 151.812Z" fill="#44637F"/>
</g>
<defs>
<clipPath id="clip0_10_2">
<rect width="412" height="360" fill="white"/>
</clipPath>
</defs>
</svg>
